<?xml version="1.0" encoding="UTF-8" standalone="no"?>
<!-- Created with Inkscape (http://www.inkscape.org/) -->

<svg
   xmlns:dc="http://purl.org/dc/elements/1.1/"
   xmlns:cc="http://creativecommons.org/ns#"
   xmlns:rdf="http://www.w3.org/1999/02/22-rdf-syntax-ns#"
   xmlns:svg="http://www.w3.org/2000/svg"
   xmlns="http://www.w3.org/2000/svg"
   xmlns:sodipodi="http://sodipodi.sourceforge.net/DTD/sodipodi-0.dtd"
   xmlns:inkscape="http://www.inkscape.org/namespaces/inkscape"
   width="205.08286mm"
   height="47.67416mm"
   viewBox="0 0 205.08286 47.67416"
   version="1.1"
   id="svg2807"
   inkscape:version="0.92.3 (2405546, 2018-03-11)"
   sodipodi:docname="unomi.svg">
  <defs
     id="defs2801" />
  <sodipodi:namedview
     id="base"
     pagecolor="#ffffff"
     bordercolor="#666666"
     borderopacity="1.0"
     inkscape:pageopacity="0.0"
     inkscape:pageshadow="2"
     inkscape:zoom="0.7"
     inkscape:cx="-115.73814"
     inkscape:cy="-23.567308"
     inkscape:document-units="mm"
     inkscape:current-layer="g3363"
     showgrid="false"
     fit-margin-top="0"
     fit-margin-left="0"
     fit-margin-right="0"
     fit-margin-bottom="0"
     inkscape:window-width="3726"
     inkscape:window-height="2049"
     inkscape:window-x="114"
     inkscape:window-y="55"
     inkscape:window-maximized="1" />
  <metadata
     id="metadata2804">
    <rdf:RDF>
      <cc:Work
         rdf:about="">
        <dc:format>image/svg+xml</dc:format>
        <dc:type
           rdf:resource="http://purl.org/dc/dcmitype/StillImage" />
        <dc:title></dc:title>
      </cc:Work>
    </rdf:RDF>
  </metadata>
  <g
     inkscape:label="Layer 1"
     inkscape:groupmode="layer"
     id="layer1"
     transform="translate(89.196069,-94.923658)">
    <g
       id="g3378"
       transform="matrix(0.40777768,0,0,0.40777768,7.9034175,70.332759)">
      <path
         transform="scale(0.26458333)"
         inkscape:connector-curvature="0"
         id="path3369"
         d="m -720.02971,432.48146 c -30.82849,0.29923 -61.09375,14.99765 -80.43458,38.99589 -12.6016,15.50443 -20.64077,34.66616 -23.06291,54.48207 -0.29749,3.91082 -0.39407,7.8903 -0.41714,11.77595 67.2612,-0.17866 134.52441,-0.0703 201.784,-0.56964 3.13421,-0.0934 6.32576,-0.0532 9.42485,-0.22836 -0.0597,-11.02076 -1.51771,-22.10281 -5.38226,-32.4714 -8.24235,-22.89716 -23.62314,-43.67121 -44.67408,-56.26759 -17.04111,-10.64865 -37.17044,-16.03058 -57.23788,-15.71692 z"
         style="opacity:1;fill:#fdfeff;fill-opacity:1;stroke:#000000;stroke-width:0.26996624;stroke-linecap:round;stroke-linejoin:bevel;stroke-miterlimit:4;stroke-dasharray:none;stroke-opacity:0.67529411" />
      <path
         transform="scale(0.26458333)"
         inkscape:connector-curvature="0"
         id="path3371"
         d="m -718.93178,306.36609 c -18.33682,0.19067 -36.08117,10.73857 -45.01294,26.75449 -6.24037,10.99077 -8.47994,24.25666 -5.8848,36.65022 4.00787,18.05145 17.62465,33.87866 35.34389,39.58845 10.10957,3.02957 21.06608,2.80198 31.27441,0.37279 19.75792,-5.71293 34.90849,-24.05255 37.5858,-44.32438 0.90345,-9.72645 -0.39472,-19.75138 -4.79543,-28.55141 -7.49826,-15.12498 -22.07644,-27.01884 -38.92632,-29.74469 -3.16125,-0.5546 -6.37584,-0.79878 -9.58461,-0.74547 z"
         style="opacity:1;fill:#fdfeff;fill-opacity:1;stroke:#000000;stroke-width:0.26996624;stroke-linecap:round;stroke-linejoin:bevel;stroke-miterlimit:4;stroke-dasharray:none;stroke-opacity:0.67529411" />
      <g
         transform="translate(85.013091,-26.040462)"
         id="g3363">
        <path
           inkscape:connector-curvature="0"
           id="path3367"
           d="m -278.05819,202.18493 c -8.42038,-3.39788 -17.07585,-8.35995 -23.60541,-13.53269 -2.80287,-2.22044 -7.66255,-6.97527 -10.08183,-9.86429 -5.25682,-6.27754 -9.06038,-13.84776 -10.49205,-20.88228 -0.83428,-4.09926 -0.95051,-9.05228 -0.87489,-37.28286 l 0.075,-28.002636 0.74236,-0.63851 0.74236,-0.63851 h 46.43997 46.43998 l 0.78268,0.782686 0.78269,0.782686 -0.0876,31.165754 c -0.0874,31.12056 -0.0884,31.16949 -0.67679,33.74843 -4.18775,18.35536 -19.31267,33.78409 -42.93833,43.80081 -2.12537,0.90111 -4.03037,1.63629 -4.23334,1.63374 -0.20296,-0.003 -1.55964,-0.4851 -3.01485,-1.07233 z m 30.8816,-36.03045 c -0.2409,-6.61527 -4.30103,-14.53235 -9.82046,-19.14945 -13.92381,-11.64749 -34.98006,-7.30677 -43.1554,8.89646 -1.68379,3.33722 -2.90886,7.97435 -2.90886,11.01064 v 1.42719 l 27.97968,-0.0673 27.97969,-0.0674 z m -24.27801,-31.5602 c 5.99067,-1.56038 10.47315,-7.3359 10.45812,-13.47494 -0.009,-3.74639 -1.46174,-7.17056 -4.22235,-9.95341 -6.61654,-6.66984 -17.71536,-4.9736 -22.17238,3.38862 -0.99837,1.87313 -1.63788,4.39302 -1.64328,6.47506 -0.016,6.18841 4.3802,11.94759 10.34456,13.55161 1.89219,0.50887 5.30809,0.51504 7.23533,0.0131 z m 261.8598269,51.97104 c -15.5645639,-2.10428 -28.5945259,-12.97651 -33.3491409,-27.82656 -1.377871,-4.30351 -1.736699,-6.87281 -1.726433,-12.36227 0.01005,-5.41567 0.422937,-8.06225 1.99136,-12.76589 3.246623,-9.73662 10.811034,-18.432 20.087616,-23.09099 2.934388,-1.47373 6.998653,-2.88487 10.400321,-3.61105 3.6127002,-0.77123 11.27188484,-0.84194 14.8557719,-0.13716 5.874914,1.15533 11.9410161,3.68278 16.4041661,6.83482 2.953226,2.08568 7.435877,6.53751 9.475179,9.41003 3.164866,4.45794 5.646552,10.18204 6.841701,15.78052 0.782585,3.66585 0.839841,11.25531 0.113057,14.98805 -1.59639,8.1993 -5.335296,15.2679 -11.12602,21.03438 -3.542109,3.52725 -6.64509,5.76232 -10.860167,7.82252 -5.8484554,2.85854 -10.1848174,3.91071 -16.801041,4.07655 -2.4010937,0.0602 -5.2389616,-0.009 -6.3063701,-0.15295 z M 0.97451064,166.62906 c 4.76459016,-1.30354 9.37180636,-4.78884 11.84417836,-8.95996 3.686149,-6.21893 3.889454,-14.30124 0.530225,-21.0795 -1.17512,-2.37116 -1.706562,-3.10481 -3.6485775,-5.03679 -2.518066,-2.50504 -4.9691659,-3.96492 -8.490823,-5.05709 -1.64218929,-0.50929 -2.5774914,-0.61619 -5.4239582,-0.61993 -4.1616841,-0.005 -5.486638,0.29022 -9.1130963,2.0337 -2.397257,1.15252 -3.066045,1.63136 -5.05124,3.61655 -1.951249,1.95126 -2.490655,2.69676 -3.663606,5.06356 -3.360208,6.78023 -3.15849,14.80593 0.530225,21.09559 1.143926,1.95051 4.951942,5.76387 6.890438,6.90013 1.732253,1.01537 4.554775,2.0469 6.6027827,2.41307 1.9292887,0.34494 7.16920281,0.12976 8.99345194,-0.36933 z"
           style="fill:#5a4edf;stroke-width:0.26458332"
           sodipodi:nodetypes="cscssccccccccccccccscsccccccsscccccccccscsccccsccccscscscccscc" />
        <path
           inkscape:connector-curvature="0"
           id="path3365"
           d="m -174.46135,180.74934 c -9.0023,-1.57678 -16.71959,-8.63481 -19.82206,-18.12876 -1.61658,-4.94692 -1.65254,-5.58275 -1.56696,-27.7091 l 0.0776,-20.06397 0.86407,-0.77197 0.86407,-0.77197 h 7.95367 7.95368 l 0.7734,0.7734 0.7734,0.77339 0.002,18.07817 c 8e-4,10.56024 0.10952,18.73834 0.26119,19.66567 0.98612,6.02912 7.48337,10.80021 13.43641,9.86668 3.61961,-0.5676 7.71694,-3.7333 9.38164,-7.24847 l 0.86397,-1.82446 0.13229,-19.11126 0.13229,-19.11126 0.8646,-0.86478 0.86459,-0.86479 7.73436,-0.0835 c 6.86372,-0.0741 7.8296,-0.033 8.58033,0.36488 1.76768,0.93691 1.66758,-1.03855 1.66758,32.91079 0,33.93205 0.11084,31.74836 -1.66649,32.83206 -0.76465,0.46624 -1.35667,0.51658 -6.08571,0.51747 -5.85433,10e-4 -6.33548,-0.11117 -7.32288,-1.70882 -0.31575,-0.51089 -0.98645,-2.56601 -1.49045,-4.56694 -0.50399,-2.00093 -1.01749,-3.73919 -1.14111,-3.8628 -0.12361,-0.12362 -0.96935,0.86238 -1.87941,2.1911 -2.71252,3.96039 -5.93424,6.42189 -10.51578,8.03441 -2.134,0.75108 -2.61142,0.81764 -6.27838,0.87521 -2.18281,0.0343 -4.61798,-0.0514 -5.41149,-0.1904 z m 57.86663,-1.23506 c -1.60398,-0.99452 -1.52285,0.75613 -1.52285,-32.86019 0,-33.93205 -0.11084,-31.74836 1.66649,-32.83206 0.76465,-0.46624 1.35667,-0.51658 6.08571,-0.51747 5.85433,-10e-4 6.33548,0.11117 7.32288,1.70882 0.31575,0.51089 0.98645,2.56601 1.49045,4.56694 0.50399,2.00093 1.0175,3.73919 1.14111,3.86281 0.12361,0.12361 0.96935,-0.86239 1.879411,-2.19111 2.705491,-3.95012 5.9032,-6.39741 10.515785,-8.048 2.255099,-0.80698 2.418934,-0.8264 6.939833,-0.82255 4.009887,0.003 4.913783,0.0845 6.746874,0.60509 10.006338,2.84184 17.175136,11.38548 19.036162,22.68694 0.380127,2.30843 0.424048,5.10779 0.356024,22.69716 l -0.0776,20.06397 -0.864076,0.77197 -0.864076,0.77197 h -7.953666 -7.953679 l -0.773396,-0.7734 -0.773398,-0.77339 -0.0053,-17.94588 c -0.0029,-9.87023 -0.115885,-18.71082 -0.251021,-19.64575 -0.880364,-6.09074 -7.390077,-10.94379 -13.448572,-10.02603 -4.541845,0.68801 -9.115615,5.08461 -10.078826,9.68841 -0.197879,0.9458 -0.293343,7.17538 -0.293343,19.14231 0,19.6782 0.05161,19.07854 -1.714077,19.91641 -0.737819,0.35012 -2.087319,0.41619 -8.380079,0.41028 -6.59335,-0.006 -7.58847,-0.0615 -8.22674,-0.45725 z m 163.777095,0 c -1.603984,-0.99452 -1.522862,0.75613 -1.522862,-32.86019 0,-33.93205 -0.110834,-31.74836 1.666478,-32.83206 0.764672,-0.46624 1.356677,-0.51658 6.085734,-0.51747 5.854303,-10e-4 6.335474,0.11117 7.322873,1.70882 0.315753,0.51089 0.986446,2.56601 1.49045,4.56694 0.503979,2.00093 1.019969,3.74167 1.146599,3.86831 0.251116,0.25111 0.404812,0.0302 2.151512,-3.09196 2.120397,-3.79022 5.812208,-6.66741 9.891421,-7.70884 2.269755,-0.57947 7.324037,-0.5244 10.415323,0.11347 4.599278,0.94905 9.468379,3.88343 12.565433,7.57262 0.846428,1.00826 1.740804,1.86752 1.987494,1.90948 0.26826,0.0456 0.63786,-0.24425 0.91964,-0.72124 0.74065,-1.25384 3.61998,-4.04792 5.45693,-5.29536 2.34272,-1.59092 5.14826,-2.83132 7.87664,-3.48245 1.99689,-0.47657 2.87528,-0.53678 6.16514,-0.4226 4.48717,0.15574 6.30446,0.56471 9.65729,2.17336 7.91541,3.79772 13.07264,11.5751 14.40884,21.72922 0.2187,1.6621 0.28466,8.16305 0.22603,22.27863 l -0.0828,19.93167 -0.86407,0.77197 -0.86408,0.77197 h -7.95367 -7.95366 l -0.77341,-0.7734 -0.7734,-0.77339 -0.009,-18.34275 c -0.005,-10.08851 -0.11131,-19.11666 -0.23678,-20.06254 -0.38377,-2.89337 -1.22274,-4.68948 -3.03871,-6.50545 -2.0148,-2.0148 -3.86104,-2.78812 -6.6829,-2.79919 -2.34227,-0.009 -4.1956,0.57164 -5.84755,1.8326 -1.45609,1.11147 -1.95014,1.65805 -2.86999,3.1752 -1.5729,2.59422 -1.52376,1.91619 -1.67847,23.17032 l -0.14216,19.53494 -0.86407,0.77183 -0.86408,0.77183 H 95.641155 87.68749 l -0.773404,-0.7734 -0.773404,-0.77339 -0.0082,-18.34275 c -0.0045,-10.08851 -0.12229,-19.23572 -0.261752,-20.32713 -0.708554,-5.54415 -4.388326,-9.0376 -9.519655,-9.0376 -4.471908,0 -8.227748,2.75592 -10.115788,7.42267 -0.599625,1.4821 -0.59989,1.48969 -0.732129,20.66493 -0.145203,21.05615 -0.05255,19.9609 -1.757336,20.76987 -0.683286,0.32425 -2.207551,0.39551 -8.336809,0.38976 -6.593363,-0.006 -7.588488,-0.0615 -8.226742,-0.45725 z m 114.125555,0.12966 c -0.34978,-0.17975 -0.88556,-0.66298 -1.19062,-1.07383 l -0.55467,-0.74701 v -31.00299 -31.003 l 0.5888,-0.94675 c 0.32385,-0.52072 0.89501,-1.08627 1.26923,-1.25677 0.46699,-0.21278 2.93796,-0.30971 7.87786,-0.30903 8.02773,0.001 8.09498,0.0146 9.54805,1.91969 l 0.6921,0.90739 v 30.75814 c 0,30.72287 0,30.75903 -0.55002,31.53059 -1.07577,1.51076 -1.36969,1.55857 -9.55715,1.5543 -5.4161,-0.003 -7.66357,-0.0943 -8.12358,-0.33073 z m -0.17888,-75.3059 c -1.43936,-0.87773 -1.56641,-1.58831 -1.56641,-8.761552 0,-7.032186 0.12123,-7.773108 1.41581,-8.652207 0.62336,-0.423301 1.49066,-0.485335 7.8446,-0.561091 4.61127,-0.05498 7.48678,0.01653 8.11141,0.201706 0.53219,0.157784 1.33586,0.70627 1.78594,1.218859 l 0.81828,0.931979 v 6.478343 c 0,6.407513 -0.007,6.489493 -0.64397,7.498463 -0.3542,0.56106 -0.96555,1.27307 -1.35861,1.58224 -0.69017,0.54289 -0.96909,0.56209 -8.15343,0.56114 -6.81101,-9e-4 -7.50755,-0.0429 -8.25362,-0.49788 z"
           style="fill:#030303;stroke-width:0.26458332" />
      </g>
    </g>
  </g>
</svg>
